<svg width="23" height="5" viewBox="0 0 23 5" fill="none" xmlns="http://www.w3.org/2000/svg">
<path d="M3.128 2.19639L2.43872 2.23881C2.42694 2.1799 2.40161 2.12688 2.36273 2.07975C2.32384 2.03144 2.27259 1.99315 2.20896 1.96487C2.14652 1.93541 2.0717 1.92068 1.98451 1.92068C1.86786 1.92068 1.76948 1.94543 1.68936 1.99491C1.60924 2.04322 1.56918 2.10802 1.56918 2.18932C1.56918 2.25413 1.5951 2.30892 1.64694 2.35369C1.69878 2.39846 1.78774 2.4344 1.91381 2.4615L2.40514 2.56047C2.66907 2.61467 2.86584 2.70186 2.99544 2.82204C3.12505 2.94222 3.18985 3.10011 3.18985 3.2957C3.18985 3.47361 3.13742 3.62973 3.03256 3.76405C2.92887 3.89837 2.78631 4.00323 2.60486 4.07864C2.42458 4.15287 2.21662 4.18998 1.98097 4.18998C1.62161 4.18998 1.3353 4.11517 1.12203 3.96553C0.90995 3.81471 0.785645 3.6097 0.749119 3.35048L1.48965 3.3116C1.51203 3.42118 1.56623 3.50483 1.65224 3.56257C1.73826 3.61912 1.84842 3.6474 1.98274 3.6474C2.11471 3.6474 2.22075 3.62207 2.30087 3.57141C2.38217 3.51956 2.42341 3.45299 2.42458 3.37169C2.42341 3.30335 2.39454 3.24739 2.33798 3.20379C2.28143 3.15902 2.19424 3.12485 2.07641 3.10129L1.60629 3.00761C1.34119 2.95459 1.14383 2.86269 1.01422 2.73191C0.885796 2.60112 0.821581 2.4344 0.821581 2.23174C0.821581 2.05736 0.868711 1.90713 0.962971 1.78106C1.05841 1.65499 1.19214 1.55778 1.36416 1.48945C1.53737 1.42111 1.74002 1.38694 1.97214 1.38694C2.31501 1.38694 2.58483 1.4594 2.78159 1.60432C2.97954 1.74925 3.09501 1.94661 3.128 2.19639ZM5.45627 1.42229V1.98784H3.82146V1.42229H5.45627ZM4.19261 0.771895H4.9455V3.30277C4.9455 3.37228 4.95611 3.42648 4.97732 3.46536C4.99852 3.50307 5.02798 3.52958 5.06568 3.54489C5.10457 3.56021 5.14934 3.56787 5.2 3.56787C5.23535 3.56787 5.2707 3.56492 5.30605 3.55903C5.34139 3.55196 5.36849 3.54666 5.38735 3.54313L5.50576 4.10338C5.46806 4.11517 5.41503 4.12872 5.3467 4.14403C5.27836 4.16053 5.19529 4.17054 5.0975 4.17408C4.91605 4.18115 4.75698 4.15699 4.62031 4.10162C4.48481 4.04624 4.37936 3.96023 4.30395 3.84358C4.22854 3.72693 4.19143 3.57965 4.19261 3.40174V0.771895ZM7.06921 4.18822C6.89601 4.18822 6.74166 4.15817 6.60616 4.09808C6.47066 4.03681 6.36344 3.94668 6.2845 3.82767C6.20673 3.70749 6.16785 3.55786 6.16785 3.37876C6.16785 3.22795 6.19554 3.10129 6.25092 2.99878C6.30629 2.89627 6.3817 2.81379 6.47714 2.75135C6.57258 2.6889 6.68098 2.64177 6.80234 2.60996C6.92487 2.57814 7.0533 2.55576 7.18762 2.5428C7.34551 2.5263 7.47276 2.51098 7.56937 2.49685C7.66599 2.48153 7.73609 2.45914 7.77969 2.42969C7.82328 2.40023 7.84508 2.35663 7.84508 2.2989V2.2883C7.84508 2.17636 7.80974 2.08976 7.73904 2.02849C7.66952 1.96722 7.57055 1.93659 7.44212 1.93659C7.30662 1.93659 7.19881 1.96664 7.11869 2.02673C7.03857 2.08564 6.98555 2.15987 6.95963 2.24941L6.26329 2.19286C6.29864 2.0279 6.36815 1.88534 6.47184 1.76516C6.57552 1.6438 6.70925 1.55071 6.87303 1.48591C7.03798 1.41993 7.22886 1.38694 7.44566 1.38694C7.59647 1.38694 7.74081 1.40461 7.87866 1.43996C8.0177 1.47531 8.14082 1.5301 8.24804 1.60432C8.35644 1.67855 8.44186 1.77399 8.50431 1.89064C8.56676 2.00611 8.59798 2.14455 8.59798 2.30597V4.13696H7.88396V3.76051H7.86276C7.81916 3.84535 7.76084 3.92017 7.68779 3.98497C7.61474 4.04859 7.52696 4.09867 7.42445 4.1352C7.32194 4.17054 7.20353 4.18822 7.06921 4.18822ZM7.28483 3.66861C7.39558 3.66861 7.49338 3.64681 7.57821 3.60322C7.66304 3.55844 7.72961 3.49835 7.77792 3.42295C7.82623 3.34754 7.85038 3.26212 7.85038 3.16668V2.8786C7.82682 2.89391 7.79442 2.90805 7.75318 2.92101C7.71312 2.9328 7.66776 2.94399 7.61709 2.95459C7.56643 2.96402 7.51576 2.97286 7.4651 2.9811C7.41443 2.98817 7.36848 2.99465 7.32724 3.00055C7.23888 3.01351 7.1617 3.03413 7.09572 3.0624C7.02974 3.09068 6.97848 3.12897 6.94196 3.17728C6.90543 3.22441 6.88717 3.28332 6.88717 3.35402C6.88717 3.45653 6.92428 3.53488 6.99851 3.58908C7.07392 3.6421 7.16936 3.66861 7.28483 3.66861ZM9.53048 4.13696V1.42229H10.2604V1.89594H10.2887C10.3382 1.72745 10.4212 1.6002 10.5379 1.51419C10.6545 1.427 10.7888 1.3834 10.9408 1.3834C10.9785 1.3834 11.0192 1.38576 11.0628 1.39047C11.1064 1.39519 11.1447 1.40167 11.1777 1.40991V2.07798C11.1423 2.06738 11.0934 2.05795 11.031 2.0497C10.9685 2.04145 10.9114 2.03733 10.8595 2.03733C10.7488 2.03733 10.6498 2.06148 10.5626 2.10979C10.4766 2.15692 10.4083 2.2229 10.3576 2.30774C10.3081 2.39257 10.2834 2.49037 10.2834 2.60112V4.13696H9.53048ZM14.174 2.19639L13.4847 2.23881C13.473 2.1799 13.4476 2.12688 13.4087 2.07975C13.3699 2.03144 13.3186 1.99315 13.255 1.96487C13.1925 1.93541 13.1177 1.92068 13.0305 1.92068C12.9139 1.92068 12.8155 1.94543 12.7354 1.99491C12.6553 2.04322 12.6152 2.10802 12.6152 2.18932C12.6152 2.25413 12.6411 2.30892 12.693 2.35369C12.7448 2.39846 12.8338 2.4344 12.9598 2.4615L13.4512 2.56047C13.7151 2.61467 13.9118 2.70186 14.0415 2.82204C14.1711 2.94222 14.2359 3.10011 14.2359 3.2957C14.2359 3.47361 14.1834 3.62973 14.0786 3.76405C13.9749 3.89837 13.8323 4.00323 13.6509 4.07864C13.4706 4.15287 13.2626 4.18998 13.027 4.18998C12.6676 4.18998 12.3813 4.11517 12.168 3.96553C11.956 3.81471 11.8317 3.6097 11.7951 3.35048L12.5357 3.3116C12.558 3.42118 12.6122 3.50483 12.6983 3.56257C12.7843 3.61912 12.8944 3.6474 13.0288 3.6474C13.1607 3.6474 13.2668 3.62207 13.3469 3.57141C13.4282 3.51956 13.4694 3.45299 13.4706 3.37169C13.4694 3.30335 13.4406 3.24739 13.384 3.20379C13.3274 3.15902 13.2402 3.12485 13.1224 3.10129L12.6523 3.00761C12.3872 2.95459 12.1898 2.86269 12.0602 2.73191C11.9318 2.60112 11.8676 2.4344 11.8676 2.23174C11.8676 2.05736 11.9147 1.90713 12.009 1.78106C12.1044 1.65499 12.2382 1.55778 12.4102 1.48945C12.5834 1.42111 12.786 1.38694 13.0182 1.38694C13.361 1.38694 13.6308 1.4594 13.8276 1.60432C14.0256 1.74925 14.141 1.94661 14.174 2.19639ZM16.5023 1.42229V1.98784H14.8675V1.42229H16.5023ZM15.2386 0.771895H15.9915V3.30277C15.9915 3.37228 16.0021 3.42648 16.0233 3.46536C16.0445 3.50307 16.074 3.52958 16.1117 3.54489C16.1506 3.56021 16.1954 3.56787 16.246 3.56787C16.2814 3.56787 16.3167 3.56492 16.3521 3.55903C16.3874 3.55196 16.4145 3.54666 16.4334 3.54313L16.5518 4.10338C16.5141 4.11517 16.461 4.12872 16.3927 4.14403C16.3244 4.16053 16.2413 4.17054 16.1435 4.17408C15.9621 4.18115 15.803 4.15699 15.6663 4.10162C15.5308 4.04624 15.4254 3.96023 15.35 3.84358C15.2746 3.72693 15.2374 3.57965 15.2386 3.40174V0.771895ZM18.1152 4.18822C17.942 4.18822 17.7877 4.15817 17.6522 4.09808C17.5167 4.03681 17.4095 3.94668 17.3305 3.82767C17.2527 3.70749 17.2139 3.55786 17.2139 3.37876C17.2139 3.22795 17.2416 3.10129 17.2969 2.99878C17.3523 2.89627 17.4277 2.81379 17.5232 2.75135C17.6186 2.6889 17.727 2.64177 17.8483 2.60996C17.9709 2.57814 18.0993 2.55576 18.2336 2.5428C18.3915 2.5263 18.5188 2.51098 18.6154 2.49685C18.712 2.48153 18.7821 2.45914 18.8257 2.42969C18.8693 2.40023 18.8911 2.35663 18.8911 2.2989V2.2883C18.8911 2.17636 18.8557 2.08976 18.7851 2.02849C18.7155 1.96722 18.6166 1.93659 18.4881 1.93659C18.3526 1.93659 18.2448 1.96664 18.1647 2.02673C18.0846 2.08564 18.0316 2.15987 18.0056 2.24941L17.3093 2.19286C17.3446 2.0279 17.4142 1.88534 17.5179 1.76516C17.6215 1.6438 17.7553 1.55071 17.919 1.48591C18.084 1.41993 18.2749 1.38694 18.4917 1.38694C18.6425 1.38694 18.7868 1.40461 18.9247 1.43996C19.0637 1.47531 19.1868 1.5301 19.2941 1.60432C19.4025 1.67855 19.4879 1.77399 19.5503 1.89064C19.6128 2.00611 19.644 2.14455 19.644 2.30597V4.13696H18.93V3.76051H18.9088C18.8652 3.84535 18.8069 3.92017 18.7338 3.98497C18.6607 4.04859 18.573 4.09867 18.4705 4.1352C18.368 4.17054 18.2495 4.18822 18.1152 4.18822ZM18.3308 3.66861C18.4416 3.66861 18.5394 3.64681 18.6242 3.60322C18.7091 3.55844 18.7756 3.49835 18.8239 3.42295C18.8722 3.34754 18.8964 3.26212 18.8964 3.16668V2.8786C18.8728 2.89391 18.8404 2.90805 18.7992 2.92101C18.7591 2.9328 18.7138 2.94399 18.6631 2.95459C18.6124 2.96402 18.5618 2.97286 18.5111 2.9811C18.4604 2.98817 18.4145 2.99465 18.3733 3.00055C18.2849 3.01351 18.2077 3.03413 18.1417 3.0624C18.0757 3.09068 18.0245 3.12897 17.988 3.17728C17.9514 3.22441 17.9332 3.28332 17.9332 3.35402C17.9332 3.45653 17.9703 3.53488 18.0445 3.58908C18.1199 3.6421 18.2154 3.66861 18.3308 3.66861ZM20.5765 4.13696V1.42229H21.3064V1.89594H21.3347C21.3842 1.72745 21.4672 1.6002 21.5839 1.51419C21.7005 1.427 21.8349 1.3834 21.9869 1.3834C22.0246 1.3834 22.0652 1.38576 22.1088 1.39047C22.1524 1.39519 22.1907 1.40167 22.2237 1.40991V2.07798C22.1883 2.06738 22.1394 2.05795 22.077 2.0497C22.0145 2.04145 21.9574 2.03733 21.9056 2.03733C21.7948 2.03733 21.6958 2.06148 21.6086 2.10979C21.5226 2.15692 21.4543 2.2229 21.4036 2.30774C21.3541 2.39257 21.3294 2.49037 21.3294 2.60112V4.13696H20.5765Z" fill="#F7B603"/>
</svg>
